<svg id="Notification--Streamline-Carbon.svg" xmlns="http://www.w3.org/2000/svg" viewBox="-0.5 -0.5 16 16" height="16" width="16"><desc>Notification Streamline Icon: https://streamlinehq.com</desc><defs></defs><path d="M13.456453125 9.04359375 12.1875 7.774640624999999V6.09375a4.693875 4.693875 0 0 0 -4.21875 -4.6636875V0.46875h-0.9375v0.9613125000000001A4.693875 4.693875 0 0 0 2.8125 6.09375v1.680890625L1.5435468749999999 9.04359375A0.46875 0.46875 0 0 0 1.40625 9.375v1.40625a0.46875 0.46875 0 0 0 0.46875 0.46875h3.28125v0.36412500000000003a2.415 2.415 0 0 0 2.109375 2.4368906249999998A2.346421875 2.346421875 0 0 0 9.84375 11.71875v-0.46875h3.28125a0.46875 0.46875 0 0 0 0.46875 -0.46875v-1.40625a0.46875 0.46875 0 0 0 -0.13729687499999998 -0.33140624999999996ZM8.90625 11.71875a1.40625 1.40625 0 0 1 -2.8125 0v-0.46875h2.8125Zm3.75 -1.40625H2.34375v-0.7433906250000001l1.26890625 -1.2689531250000001A0.46875 0.46875 0 0 0 3.75 7.96875v-1.875a3.75 3.75 0 0 1 7.5 0v1.875a0.46875 0.46875 0 0 0 0.13734375 0.33140624999999996L12.65625 9.569109375Z" stroke-width="1"></path><path id="_Transparent_Rectangle_" d="M0 0h15v15H0Z" fill="none" stroke-width="1"></path></svg>